<?xml version="1.0" encoding="UTF-8"?>
<svg width="64px" height="65px" viewBox="0 0 64 65" version="1.1" xmlns="http://www.w3.org/2000/svg" xmlns:xlink="http://www.w3.org/1999/xlink">
    <!-- Generator: Sketch 46.2 (44496) - http://www.bohemiancoding.com/sketch -->
    <title>Devcoin</title>
    <desc>Created with Sketch.</desc>
    <defs></defs>
    <g id="Page-1" stroke="none" stroke-width="1" fill="none" fill-rule="evenodd">
        <g id="crypto" transform="translate(-86.000000, -325.000000)" fill-rule="nonzero">
            <g id="Devcoin" transform="translate(86.000000, 325.000000)">
                <circle id="Oval" fill="#00B346" cx="31.7" cy="32.4" r="31.7"></circle>
                <path d="M36.7,19.3 C33.1,18.2 29.5,17.4 25.8,16.5 C23.3,15.9 23.3,15.9 22.6,18.5 C22.2,19.8 22.4,20.3 23.8,20.6 C25.8,21 26.2,21.6 25.7,23.7 C25.3,25.3 24.9,26.9 24.5,28.5 C24.3,29.2 24,29.4 23.4,29.2 C22.1,28.8 20.8,28.6 19.5,28.2 C18.3,27.8 18,28.2 17.8,29.3 C17.8,29.5 17.7,29.8 17.6,30 C17.3,30.8 17.5,31.2 18.4,31.4 C19.8,31.7 21.2,32.1 22.6,32.4 C23.1,32.5 23.4,32.6 23.2,33.3 C22.6,35.6 22,37.9 21.4,40.3 C21.1,41.3 20.4,41.7 19.3,41.5 C16.8,41.1 16.8,41.1 16.2,43.6 C16.2,43.8 16.2,44 16.1,44.2 C15.7,45 16.2,45.2 16.8,45.4 C20.9,46.4 24.9,47.5 29,48.4 C37.2,50.1 43.8,46.2 46.3,38.3 C46.8,36.6 47.1,34.9 47.1,33.1 C47.3,26.3 43.5,21.3 36.7,19.3 Z M36.1,42.2 C34,44.3 30.5,44.8 27.9,43.6 C27.2,43.3 27,42.9 27.2,42.2 C27.8,39.7 28.4,37.3 29,34.8 C29.2,34.1 29.4,34 30.1,34.2 C31.5,34.6 32.9,34.8 34.3,35.3 C35,35.5 35.3,35.3 35.4,34.7 C36,31.8 36.4,32.5 33.8,31.8 C33.7,31.8 33.5,31.7 33.4,31.7 C30,30.9 30,30.9 30.8,27.5 C31.1,26.2 31.5,24.9 31.8,23.6 C32,22.8 32.2,22.6 33.1,22.8 C38.1,24.1 40.3,26.9 40.3,32.6 C40.2,35.8 39,39.4 36.1,42.2 Z" id="Shape" fill="#FEFEFE"></path>
            </g>
        </g>
    </g>
</svg>