<?xml version="1.0" encoding="UTF-8"?>
<svg width="64px" height="65px" viewBox="0 0 64 65" version="1.1" xmlns="http://www.w3.org/2000/svg" xmlns:xlink="http://www.w3.org/1999/xlink">
    <!-- Generator: Sketch 46.2 (44496) - http://www.bohemiancoding.com/sketch -->
    <title>Dogecoin</title>
    <desc>Created with Sketch.</desc>
    <defs></defs>
    <g id="Page-1" stroke="none" stroke-width="1" fill="none" fill-rule="evenodd">
        <g id="crypto" transform="translate(-505.000000, -208.000000)" fill-rule="nonzero">
            <g id="Dogecoin" transform="translate(505.000000, 208.000000)">
                <circle id="Oval" fill="#F8BF1A" cx="32.2" cy="32.4" r="31.7"></circle>
                <path d="M14.6,50.2 C14.6,47.4 14.6,44.6 14.6,41.8 C16.2,41.8 17.9,41.8 19.5,41.8 C19.5,35.4 19.5,29 19.5,22.6 C17.9,22.6 16.3,22.6 14.6,22.6 C14.6,19.9 14.6,17.3 14.6,14.5 C14.8,14.5 15.1,14.5 15.3,14.5 C21.9,14.5 28.5,14.5 35.1,14.5 C36.5,14.5 37.9,14.9 39.2,15.4 C41.8,16.4 44.1,17.9 45.9,20.1 C47.5,22 48.6,24.2 49.2,26.7 C50.2,30.9 50.2,35.2 49,39.4 C47.4,44.9 44,48.6 38.2,49.9 C37.2,50.1 36.1,50.2 35.1,50.3 C28.5,50.3 22,50.3 15.4,50.3 C15.1,50.2 14.9,50.2 14.6,50.2 Z M29.5,41.8 C30.6,41.8 31.7,41.9 32.8,41.8 C34.2,41.7 35.5,41.2 36.4,40 C37.2,39 37.9,37.9 38.3,36.7 C39.1,34 38.8,31.3 38.2,28.6 C37.9,27 37.1,25.5 36.1,24.3 C35.5,23.6 34.7,22.8 33.8,22.7 C32.4,22.4 30.9,22.6 29.5,22.6 C29.5,29 29.5,35.4 29.5,41.8 Z" id="Shape" fill="#FFFFFF"></path>
            </g>
        </g>
    </g>
</svg>