<?xml version="1.0" encoding="UTF-8"?>
<svg width="64px" height="64px" viewBox="0 0 64 64" version="1.1" xmlns="http://www.w3.org/2000/svg" xmlns:xlink="http://www.w3.org/1999/xlink">
    <!-- Generator: Sketch 46.2 (44496) - http://www.bohemiancoding.com/sketch -->
    <title>FLASH</title>
    <desc>Created with Sketch.</desc>
    <defs></defs>
    <g id="Page-1" stroke="none" stroke-width="1" fill="none" fill-rule="evenodd">
        <g id="crypto" transform="translate(-215.000000, -443.000000)">
            <g id="FLASH" transform="translate(215.000000, 443.000000)">
                <g id="Group" stroke-width="1" fill-rule="evenodd" transform="translate(2.000000, 1.000000)">
                    <path d="M30,0.7 C13.4,0.7 0,14.1 0,30.7 C0,47.3 13.4,60.7 30,60.7 C46.6,60.7 60,47.3 60,30.7 C60.1,14.2 46.6,0.7 30,0.7 Z M39.7,40.4 L20.4,40.4 L20.4,21.1 L39.7,21.1 L39.7,40.4 Z" id="Shape" fill="#FFAF00" fill-rule="nonzero"></path>
                    <path d="M30,2.2 C33.9,2.2 37.6,3 41.1,4.4 C44.5,5.8 47.6,7.9 50.2,10.5 C52.8,13.1 54.9,16.2 56.3,19.6 C57.8,23.1 58.5,26.9 58.5,30.7 C58.5,34.6 57.7,38.3 56.3,41.8 C54.9,45.2 52.8,48.3 50.2,50.9 C47.6,53.5 44.5,55.6 41.1,57 C37.6,58.5 33.8,59.2 30,59.2 C26.1,59.2 22.4,58.4 18.9,57 C15.5,55.6 12.4,53.5 9.8,50.9 C7.2,48.3 5.1,45.2 3.7,41.8 C2.2,38.3 1.5,34.5 1.5,30.7 C1.5,26.8 2.3,23.1 3.7,19.6 C5.1,16.2 7.2,13.1 9.8,10.5 C12.4,7.9 15.5,5.8 18.9,4.4 C22.4,3 26.2,2.2 30,2.2 L30,2.2 Z M18.9,41.9 L20.4,41.9 L39.7,41.9 L41.2,41.9 L41.2,40.4 L41.2,21.1 L41.2,19.6 L39.7,19.6 L20.4,19.6 L18.9,19.6 L18.9,21.1 L18.9,40.4 L18.9,41.9 L18.9,41.9 Z M30,0.7 C13.4,0.7 0,14.1 0,30.7 C0,47.3 13.4,60.7 30,60.7 C46.6,60.7 60,47.3 60,30.7 C60.1,14.2 46.6,0.7 30,0.7 L30,0.7 Z M20.4,40.4 L20.4,21.1 L39.7,21.1 L39.7,40.4 L20.4,40.4 L20.4,40.4 Z" id="Shape" fill="#FCE900" fill-rule="nonzero"></path>
                </g>
                <path d="M32,63.4 C23.5,63.4 15.6,60.1 9.6,54.1 C3.6,48.1 0.3,40.2 0.3,31.7 C0.3,23.2 3.6,15.3 9.6,9.3 C15.6,3.3 23.5,0 32,0 C40.5,0 48.4,3.3 54.4,9.3 C60.4,15.3 63.7,23.2 63.7,31.7 C63.7,40.2 60.4,48.1 54.4,54.1 C48.5,60.2 40.5,63.4 32,63.4 Z M32,3.4 C16.4,3.4 3.7,16.1 3.7,31.7 C3.7,47.3 16.4,60 32,60 C47.6,60 60.3,47.3 60.3,31.7 C60.3,16.1 47.7,3.4 32,3.4 Z" id="Shape" fill="#F8F100" fill-rule="nonzero"></path>
            </g>
        </g>
    </g>
</svg>