<?xml version="1.0" encoding="UTF-8"?>
<svg width="64px" height="65px" viewBox="0 0 64 65" version="1.1" xmlns="http://www.w3.org/2000/svg" xmlns:xlink="http://www.w3.org/1999/xlink">
    <!-- Generator: Sketch 46.2 (44496) - http://www.bohemiancoding.com/sketch -->
    <title>Lisk Wallet</title>
    <desc>Created with Sketch.</desc>
    <defs>
        <path d="M24.4952684,51.4388506 C23.3942684,51.2718506 22.3352684,50.9808506 21.3432684,50.4668506 C20.9692684,50.2738506 20.9082684,50.0708506 21.1242684,49.7148506 C21.3882684,49.2838506 21.6542684,48.8528506 21.9192684,48.4208506 C22.1692684,48.0138506 22.3212684,47.9678506 22.7472684,48.1678506 C24.3082684,48.8988506 25.9442684,49.1008506 27.6382684,48.8408506 C28.2032684,48.7548506 28.7412684,48.5828506 29.1612684,48.1628506 C29.7552684,47.5688506 29.7622684,46.5618506 29.1712684,45.9648506 C28.6872684,45.4768506 28.0832684,45.1678506 27.4662684,44.8958506 C26.5492684,44.4918506 25.6162684,44.1218506 24.6962684,43.7238506 C24.0912684,43.4628506 23.5322684,43.1178506 22.9672684,42.7808506 C20.6542684,41.4028506 20.3232684,37.1498506 23.5582684,35.7218506 C24.5472684,35.2848506 25.5792684,35.0738506 26.6482684,35.0188506 C28.4492684,34.9258506 30.2002684,35.1748506 31.8912684,35.8128506 C32.2882684,35.9618506 32.3532684,36.1388506 32.1422684,36.5038506 C31.8472684,37.0158506 31.5522684,37.5278506 31.2552684,38.0378506 C31.0762684,38.3438506 30.8722684,38.4178506 30.5322684,38.3018506 C29.3842684,37.9128506 28.2222684,37.6018506 26.9942684,37.6408506 C26.4862684,37.6578506 25.9832684,37.7068506 25.5032684,37.8908506 C24.4692684,38.2908506 24.2262684,39.4358506 25.0132684,40.2208506 C25.2862684,40.4938506 25.6222684,40.6708506 25.9602684,40.8448506 C27.0342684,41.3978506 28.1792684,41.7828506 29.2862684,42.2568506 C29.7982684,42.4758506 30.3002684,42.7128506 30.7792684,42.9988506 C32.6312684,44.0998506 33.1262684,45.5598506 32.8962684,47.4428506 C32.6512684,49.4518506 31.3722684,50.5558506 29.5312684,51.1248506 C28.7852684,51.3548506 28.0162684,51.4608506 27.2412684,51.5248506 C27.1742684,51.5308506 24.7872684,51.4828506 24.4952684,51.4388506" id="path-1"></path>
    </defs>
    <g id="Page-1" stroke="none" stroke-width="1" fill="none" fill-rule="evenodd">
        <g id="crypto" transform="translate(-215.000000, -325.000000)">
            <g id="Lisk-Wallet" transform="translate(215.000000, 325.000000)">
                <circle id="Oval" fill="#27A1F8" fill-rule="nonzero" cx="32" cy="32.4" r="31.7"></circle>
                <g id="Group" stroke-width="1" fill-rule="evenodd" transform="translate(16.000000, 10.000000)" fill="#FEFEFE">
                    <path d="M22.3,21.7 C22.5,21.8 22.5,21.9 22.5,22.1 C22.5,24.1 22.5,26.2 22.5,28.2 C22.5,29.4 22.5,30.7 22.5,31.9 C22.5,32 22.5,32.1 22.6,32.2 C22.7,32.3 22.8,32.1 22.9,32.1 C24.9,30.1 26.8,28.2 28.8,26.2 C29.1,25.9 29.4,25.8 29.7,25.8 C30.6,25.8 31.5,25.8 32.4,25.8 C32.5,25.8 32.6,25.8 32.7,25.9 C32.8,26 32.7,26.1 32.6,26.2 C30.7,28.2 28.9,30.2 27,32.2 C26.6,32.6 26.6,32.7 26.9,33.2 C28.6,35.9 30.4,38.6 32.1,41.2 C32.1,41.3 32.2,41.3 32.2,41.4 C32.3,41.6 32.3,41.8 32,41.8 C31.7,41.8 31.5,41.8 31.2,41.8 C30.6,41.8 30,41.8 29.4,41.8 C29,41.8 28.7,41.6 28.5,41.3 C27.2,39.2 25.9,37.1 24.6,35 C24.6,34.9 24.5,34.9 24.5,34.8 C24.4,34.6 24.2,34.6 24,34.7 C23.6,35.1 23.2,35.5 22.8,35.8 C22.6,36 22.5,36.3 22.5,36.5 C22.5,38 22.5,39.5 22.5,41 C22.5,41.5 22.4,41.6 21.9,41.6 C21.2,41.6 20.5,41.6 19.8,41.6 C19.3,41.6 19.2,41.5 19.2,41 C19.2,36.1 19.2,31.2 19.2,26.4 C19.2,25.9 19.2,25.3 19.2,24.8 C19.2,24.5 19.3,24.2 19.6,24 C20.4,23.3 21.3,22.6 22.1,21.8 C22.2,21.8 22.2,21.8 22.3,21.7 C22.3,21.7 22.3,21.7 22.3,21.7 Z" id="Shape" fill-rule="nonzero"></path>
                    <path d="M3.3,0.4 C3.5,0.5 3.4,0.6 3.4,0.8 C3.4,3 3.4,5.1 3.4,7.3 C3.4,10.5 3.4,13.7 3.4,17 C3.4,17.5 3.5,17.6 4,17.6 C6.3,17.6 8.7,17.6 11,17.6 C11.4,17.6 11.5,17.7 11.5,18.1 C11.5,18.7 11.5,19.3 11.5,19.9 C11.5,20.3 11.4,20.4 11,20.4 C7.6,20.4 4.1,20.4 0.7,20.4 C0.5,20.4 0.3,20.3 0.2,20.2 C0.2,14.5 0.2,8.8 0.2,3.2 C0.3,3 0.4,2.8 0.6,2.6 C1.4,1.9 2.1,1.3 2.9,0.6 C3,0.5 3.1,0.4 3.3,0.4 C3.3,0.4 3.3,0.4 3.3,0.4 Z" id="Shape" fill-rule="nonzero"></path>
                    <path d="M16.5,12.3 C16.5,14.8 16.5,17.2 16.5,19.7 C16.5,20.1 16.4,20.3 15.9,20.3 C15.2,20.3 14.4,20.3 13.7,20.3 C13.3,20.3 13.2,20.2 13.2,19.8 C13.2,15.7 13.2,11.7 13.2,7.6 C13.2,7.3 13.3,7 13.6,6.8 C14.4,6.1 15.3,5.4 16.1,4.7 C16.2,4.6 16.3,4.5 16.4,4.6 C16.5,4.7 16.5,4.8 16.5,4.9 C16.5,7.4 16.5,9.9 16.5,12.3 Z" id="Shape" fill-rule="nonzero"></path>
                </g>
                <mask id="mask-2" fill="white">
                    <use xlink:href="#path-1"></use>
                </mask>
                <use id="Fill-1" fill="#FEFEFE" fill-rule="evenodd" xlink:href="#path-1"></use>
            </g>
        </g>
    </g>
</svg>