<?xml version="1.0" encoding="UTF-8"?>
<svg width="64px" height="65px" viewBox="0 0 64 65" version="1.1" xmlns="http://www.w3.org/2000/svg" xmlns:xlink="http://www.w3.org/1999/xlink">
    <!-- Generator: Sketch 46.2 (44496) - http://www.bohemiancoding.com/sketch -->
    <title>Litecoin</title>
    <desc>Created with Sketch.</desc>
    <defs></defs>
    <g id="Page-1" stroke="none" stroke-width="1" fill="none" fill-rule="evenodd">
        <g id="crypto" transform="translate(-505.000000, -93.000000)">
            <g id="Litecoin" transform="translate(505.000000, 93.000000)">
                <g id="Group">
                    <path d="M32.2,64.1 C14.6,64 0.5,49.9 0.6,32.4 C0.6,14.8 14.9,0.7 32.4,0.8 C50,0.9 64.1,15.1 64,32.6 C63.8,50.1 49.6,64.2 32.2,64.1 Z M60.9,32.5 C60.9,16.6 48.1,3.8 32.2,3.8 C16.4,3.8 3.6,16.6 3.6,32.4 C3.6,48.3 16.4,61.1 32.3,61.1 C48.1,61.1 60.9,48.3 60.9,32.5 Z" id="Shape" fill="#C0C0C0" fill-rule="nonzero"></path>
                    <path d="M56.6,32.5 C56.4,46 45.5,56.9 32.1,56.8 C18.5,56.6 7.7,45.6 7.9,32.2 C8.1,18.7 19,8 32.3,8.1 C45.8,8.2 56.6,19.1 56.6,32.5 Z M30.7,41.2 C30.7,41.1 30.7,41 30.7,40.9 C31.4,38.2 32,35.6 32.7,32.9 C32.8,32.7 33,32.4 33.3,32.3 C34,32 34.7,31.7 35.4,31.5 C37,31.1 37.9,30.2 38.1,28.6 C38.2,27.9 38.5,27.2 38.7,26.4 C37,27.1 35.5,27.7 33.9,28.3 C35,24 36,20 37.1,15.8 C36.8,15.8 36.6,15.8 36.4,15.8 C33.6,15.8 30.8,15.8 28,15.8 C27.4,15.8 27.2,16 27,16.6 C25.6,21.8 24.2,27 22.8,32.2 C22.7,32.5 22.4,32.8 22.2,32.9 C21.3,33.3 20.3,33.6 19.4,34 C19.2,34.1 18.9,34.2 18.9,34.3 C18.5,35.6 18.1,37 17.6,38.5 C19,37.9 20.2,37.4 21.6,36.9 C20.7,40.4 19.8,43.8 18.9,47.2 C20.9,47.2 22.8,47.2 24.7,47.2 C31.4,47.2 38,47.2 44.7,47.2 C45.2,47.2 45.4,47.1 45.5,46.6 C45.7,45.6 46,44.6 46.3,43.7 C46.5,43 46.6,42.3 46.8,41.5 C41.4,41.4 36.1,41.3 30.7,41.2 Z" id="Shape" fill="#C0C0C0" fill-rule="nonzero"></path>
                    <path d="M30.7,41.2 C36.1,41.3 41.4,41.4 46.8,41.6 C46.6,42.4 46.4,43.1 46.3,43.8 C46,44.8 45.7,45.7 45.5,46.7 C45.4,47.2 45.2,47.3 44.7,47.3 C38,47.3 31.4,47.3 24.7,47.3 C22.8,47.3 20.9,47.3 18.9,47.3 C19.8,43.8 20.7,40.5 21.6,37 C20.2,37.5 19,38 17.6,38.6 C18,37.1 18.4,35.8 18.9,34.4 C18.9,34.2 19.2,34.1 19.4,34.1 C20.3,33.7 21.3,33.4 22.2,33 C22.5,32.9 22.8,32.6 22.8,32.3 C24.2,27.1 25.6,21.9 27,16.7 C27.1,16.1 27.3,15.9 28,15.9 C30.8,15.9 33.6,15.9 36.4,15.9 C36.6,15.9 36.8,15.9 37.1,15.9 C36,20 35,24.1 33.9,28.4 C35.5,27.7 37,27.1 38.7,26.5 C38.5,27.3 38.2,28 38.1,28.7 C37.9,30.3 37,31.2 35.4,31.6 C34.7,31.8 34,32.1 33.3,32.4 C33.1,32.5 32.8,32.8 32.7,33 C32,35.7 31.3,38.3 30.7,41 C30.7,41 30.7,41.1 30.7,41.2 Z" id="Shape" fill="#FFFFFF" fill-rule="nonzero"></path>
                </g>
            </g>
        </g>
    </g>
</svg>