<?xml version="1.0" encoding="UTF-8"?>
<svg width="58px" height="64px" viewBox="0 0 58 64" version="1.1" xmlns="http://www.w3.org/2000/svg" xmlns:xlink="http://www.w3.org/1999/xlink">
    <!-- Generator: Sketch 46.2 (44496) - http://www.bohemiancoding.com/sketch -->
    <title>MaidSafeCoin</title>
    <desc>Created with Sketch.</desc>
    <defs>
        <polygon id="path-1" points="0.0206 0.633 56.8996 0.633 56.8996 46.0720401 0.0206 46.0720401 0.0206 0.633"></polygon>
        <polygon id="path-3" points="0 0.9339 0 1.9339 0.9998 1.9339 0.9998 0.9339 0 0.9339"></polygon>
        <polygon id="path-5" points="0 0.3778 0 1.3778 0.9998 1.3778 0.9998 0.3778 0 0.3778"></polygon>
    </defs>
    <g id="Page-1" stroke="none" stroke-width="1" fill="none" fill-rule="evenodd">
        <g id="crypto" transform="translate(-653.000000, -208.000000)">
            <g id="MaidSafeCoin" transform="translate(653.000000, 207.000000)">
                <g id="Page-1" transform="translate(0.200012, 0.044441)">
                    <g id="Group-3" transform="translate(0.000000, 0.367300)">
                        <mask id="mask-2" fill="white">
                            <use xlink:href="#path-1"></use>
                        </mask>
                        <g id="Clip-2"></g>
                        <path d="M45.5926,0.6327 L46.3216,0.6327 C46.4036,0.6657 46.4886,0.6407 46.5716,0.6487 L46.7226,0.6487 C47.5356,0.6457 48.3256,0.7927 49.1006,1.0317 C49.9846,1.3057 50.8366,1.6557 51.6666,2.0637 C52.6996,2.5697 53.7046,3.1267 54.7056,3.6907 C55.3586,4.0587 56.0086,4.4287 56.6656,4.7887 C56.7556,4.8387 56.8626,4.8737 56.8996,4.9877 C56.8946,5.0857 56.8246,5.1337 56.7516,5.1767 C55.9316,5.6537 55.1086,6.1267 54.2866,6.6027 C53.4566,7.0837 52.6256,7.5637 51.7946,8.0437 C50.9366,8.5397 50.0776,9.0357 49.2196,9.5307 C48.4526,9.9747 47.6866,10.4177 46.9186,10.8617 C46.1246,11.3207 45.3296,11.7797 44.5346,12.2377 C43.7546,12.6887 42.9746,13.1397 42.1936,13.5907 C41.2706,14.1227 40.3486,14.6567 39.4266,15.1897 C38.5906,15.6727 37.7556,16.1557 36.9206,16.6387 C36.0586,17.1377 35.1946,17.6347 34.3316,18.1337 C33.5006,18.6137 32.6696,19.0927 31.8386,19.5737 C30.9816,20.0707 30.1216,20.5657 29.2636,21.0617 C28.4966,21.5057 27.7296,21.9477 26.9626,22.3917 C26.1056,22.8887 25.2456,23.3827 24.3886,23.8797 C23.5436,24.3687 22.6976,24.8547 21.8546,25.3437 C21.3436,25.6397 20.8296,25.9317 20.3206,26.2307 C20.2816,26.2537 20.2166,26.2597 20.2216,26.3177 C20.2246,26.3617 20.2806,26.3707 20.3176,26.3917 C21.2676,26.9487 22.2216,27.5017 23.1756,28.0527 C24.2206,28.6577 25.2646,29.2637 26.3106,29.8677 C27.1226,30.3367 27.9356,30.8067 28.7446,31.2827 C28.8626,31.3517 28.9816,31.4197 29.1046,31.4807 C29.2556,31.6047 29.4376,31.6797 29.6046,31.7767 C30.8776,32.5107 32.1476,33.2507 33.4186,33.9867 C34.5036,34.6137 35.5886,35.2417 36.6736,35.8677 C36.7576,35.9157 36.8306,35.9727 36.8916,36.0477 C36.9306,36.1217 36.9186,36.2027 36.9186,36.2807 C36.9196,39.4487 36.9196,42.6157 36.9186,45.7837 C36.9186,46.1017 36.8456,46.1407 36.5646,45.9787 C35.0296,45.0927 33.4966,44.2017 31.9626,43.3157 C30.4426,42.4377 28.9216,41.5567 27.4026,40.6777 C26.0406,39.8917 24.6836,39.1007 23.3216,38.3147 C21.9976,37.5497 20.6736,36.7837 19.3506,36.0177 C18.2636,35.3887 17.1796,34.7577 16.0926,34.1287 C15.0016,33.4977 13.9116,32.8647 12.8206,32.2347 C11.4316,31.4327 10.0456,30.6277 8.6566,29.8247 C7.2096,28.9887 5.7636,28.1507 4.3166,27.3137 C3.2296,26.6857 2.1426,26.0587 1.0586,25.4247 C0.7626,25.2517 0.4666,25.0777 0.1676,24.9117 C0.0866,24.8667 0.0326,24.8127 0.0206,24.7207 C0.0386,24.6117 0.1336,24.5717 0.2136,24.5267 C1.2656,23.9327 2.3106,23.3257 3.3586,22.7257 C4.3826,22.1387 5.4066,21.5487 6.4316,20.9617 C7.3326,20.4447 8.2346,19.9267 9.1356,19.4107 C10.0916,18.8627 11.0476,18.3147 12.0026,17.7637 C12.8296,17.2867 13.6596,16.8157 14.4886,16.3407 C15.3936,15.8207 16.2976,15.2997 17.2046,14.7817 C18.1066,14.2667 19.0086,13.7497 19.9086,13.2317 C20.7906,12.7237 21.6756,12.2207 22.5566,11.7117 C23.3736,11.2387 24.1946,10.7707 25.0136,10.3017 C25.8516,9.8227 26.6856,9.3387 27.5256,8.8617 C28.3546,8.3897 29.1806,7.9107 30.0096,7.4377 C30.8386,6.9647 31.6656,6.4897 32.4926,6.0127 C33.2476,5.5787 34.0036,5.1487 34.7586,4.7157 C35.3436,4.3797 35.9256,4.0367 36.5156,3.7087 C37.3596,3.2377 38.2196,2.8007 39.0926,2.3877 C39.9906,1.9637 40.9086,1.5907 41.8526,1.2807 C42.6246,1.0277 43.4086,0.8167 44.2166,0.7067 C44.5916,0.6547 44.9726,0.6527 45.3516,0.6487 C45.4326,0.6397 45.5146,0.6677 45.5926,0.6327" id="Fill-1" fill="#4391DB" mask="url(#mask-2)"></path>
                    </g>
                    <path d="M0.034,25.084 C0.057,25.137 0.107,25.158 0.152,25.185 C3.025,26.848 5.898,28.511 8.77,30.174 C11.785,31.92 14.8,33.665 17.814,35.41 C20.217,36.801 22.619,38.192 25.021,39.583 C27.749,41.161 30.476,42.737 33.204,44.315 C34.359,44.984 35.514,45.655 36.669,46.325 C36.835,46.421 36.849,46.415 36.849,46.227 C36.849,42.958 36.848,39.689 36.848,36.421 C36.814,36.326 36.805,36.227 36.805,36.126 L36.805,27.56 C36.805,27.492 36.806,27.423 36.817,27.355 C36.797,27.24 36.871,27.183 36.956,27.132 C37.928,26.561 38.894,25.982 39.863,25.406 C40.959,24.755 42.055,24.104 43.151,23.453 C43.961,22.971 44.769,22.485 45.585,22.012 C45.668,21.964 45.775,21.858 45.858,22.025 C45.865,22.11 45.862,22.195 45.862,22.279 C45.862,36.182 45.862,50.085 45.861,63.989 C45.861,64.088 45.876,64.189 45.846,64.287 C45.737,64.393 45.633,64.309 45.546,64.261 C45.204,64.072 44.87,63.871 44.531,63.675 C43.627,63.154 42.725,62.626 41.822,62.103 C41.087,61.677 40.353,61.249 39.619,60.823 C38.716,60.298 37.813,59.774 36.909,59.251 C36.18,58.828 35.45,58.402 34.721,57.979 C33.812,57.452 32.905,56.925 31.997,56.398 C31.266,55.975 30.537,55.55 29.807,55.126 C28.9,54.6 27.992,54.073 27.085,53.546 C26.354,53.122 25.625,52.698 24.895,52.274 C23.987,51.747 23.08,51.22 22.172,50.693 C21.442,50.27 20.713,49.846 19.983,49.421 C19.026,48.864 18.067,48.309 17.11,47.752 C16.303,47.283 15.496,46.814 14.688,46.346 C13.785,45.822 12.882,45.297 11.978,44.773 C11.281,44.369 10.589,43.952 9.884,43.56 C8.947,43.039 8.042,42.467 7.153,41.87 C6.335,41.319 5.546,40.728 4.792,40.091 C4.275,39.654 3.788,39.185 3.328,38.691 C2.541,37.845 1.864,36.918 1.357,35.876 C0.881,34.897 0.564,33.866 0.376,32.795 C0.272,32.214 0.2,31.629 0.146,31.041 C0.068,30.189 0.055,29.336 0.045,28.482 C0.036,27.686 0.015,26.89 0.015,26.093 L0.015,25.745 C0.007,25.597 0.036,25.448 0,25.301 L0,25.08 C0.013,25.069 0.024,25.07 0.034,25.084" id="Fill-4" fill="#90BDE9"></path>
                    <path d="M45.8807,64.3428 C45.8827,64.3508 45.8817,64.3598 45.8777,64.3668 L45.8147,64.3668 C45.8037,64.3478 45.7917,64.3278 45.7797,64.3078 C45.8327,64.2368 45.8147,64.1548 45.8147,64.0778 C45.8157,62.2718 45.8147,60.4668 45.8147,58.6618 L45.8147,22.2538 C45.8147,22.1588 45.8127,22.0638 45.8117,21.9688 C45.8197,21.9438 45.8357,21.9368 45.8587,21.9518 C45.9067,21.9868 45.9117,22.0398 45.9157,22.0928 C45.9237,22.2148 45.9207,22.3358 45.9207,22.4568 L45.9207,63.8728 C45.9207,64.0308 45.9317,64.1888 45.8807,64.3428" id="Fill-6" fill="#AAC5E1"></path>
                    <g id="Group-10" transform="translate(0.000000, 24.367300)">
                        <mask id="mask-4" fill="white">
                            <use xlink:href="#path-3"></use>
                        </mask>
                        <g id="Clip-9"></g>
                        <path d="M-0.0002,0.9339 C0.0618,1.0799 0.0228,1.2309 0.0278,1.3809 C0.0168,1.4009 0.0068,1.3999 -0.0002,1.3779 L-0.0002,0.9339 Z" id="Fill-8" fill="#B7D4F1" mask="url(#mask-4)"></path>
                    </g>
                    <g id="Group-13" transform="translate(0.000000, 25.367300)">
                        <mask id="mask-6" fill="white">
                            <use xlink:href="#path-5"></use>
                        </mask>
                        <g id="Clip-12"></g>
                        <path d="M-0.0002,0.3778 C0.0098,0.3788 0.0188,0.3798 0.0278,0.3808 C0.0268,0.5068 0.0268,0.6328 0.0258,0.7598 C0.0178,0.7598 0.0088,0.7588 -0.0002,0.7578 L-0.0002,0.3778 Z" id="Fill-11" fill="#E4EFFA" mask="url(#mask-6)"></path>
                    </g>
                    <path d="M45.3348,1.0263 C45.3358,1.0173 45.3378,1.0083 45.3398,1.0003 L45.5928,1.0003 C45.5108,1.0453 45.4228,1.0353 45.3348,1.0263" id="Fill-14" fill="#95C1EB"></path>
                    <path d="M46.5779,1.0263 C46.4909,1.0313 46.4029,1.0443 46.3209,1.0003 L46.5749,1.0003 C46.5969,1.0063 46.5979,1.0153 46.5779,1.0263" id="Fill-16" fill="#97C2EB"></path>
                    <path d="M46.5779,1.0263 L46.5749,1.0003 L46.7329,1.0003 C46.7329,1.0083 46.7339,1.0183 46.7349,1.0263 C46.6819,1.0263 46.6309,1.0263 46.5779,1.0263" id="Fill-18" fill="#CBE0F5"></path>
                    <path d="M45.8807,64.3428 C45.8147,64.2768 45.8487,64.1928 45.8487,64.1188 C45.8467,51.6788 45.8467,39.2398 45.8467,26.8008 C45.8467,25.2438 45.8467,23.6858 45.8437,22.1288 C45.8437,22.0768 45.8867,22.0088 45.8117,21.9688 C45.1667,22.3488 44.5207,22.7278 43.8767,23.1098 C41.5437,24.4928 39.2127,25.8778 36.8807,27.2628 C36.8677,27.2698 36.8577,27.2818 36.8457,27.2918 C36.8317,27.3748 36.7717,27.4128 36.7057,27.4518 C35.9337,27.9148 35.1567,28.3728 34.3837,28.8338 C33.2337,29.5178 32.0807,30.1988 30.9317,30.8838 C30.3977,31.2018 29.8647,31.5238 29.3267,31.8358 C29.2507,31.8798 29.1757,31.9368 29.0777,31.8958 C28.8087,31.8078 28.5837,31.6378 28.3437,31.4988 C25.6387,29.9348 22.9377,28.3658 20.2347,26.7988 C20.1767,26.7638 20.1177,26.7288 20.0357,26.6788 C20.3107,26.5198 20.5667,26.3688 20.8237,26.2208 C23.1217,24.8928 25.4187,23.5638 27.7177,22.2368 C30.3217,20.7318 32.9267,19.2298 35.5307,17.7248 C39.5827,15.3838 43.6347,13.0408 47.6867,10.6998 C50.6927,8.9628 53.6987,7.2278 56.7047,5.4898 C56.7637,5.4568 56.8297,5.4328 56.8707,5.3738 C56.9367,5.4278 56.9017,5.5008 56.9017,5.5638 C56.9037,14.4828 56.9037,23.4018 56.9037,32.3198 C56.9037,37.1358 56.9057,41.9518 56.9017,46.7678 C56.9007,48.4688 56.8187,50.1668 56.5817,51.8528 C56.3577,53.4568 55.9887,55.0218 55.2867,56.4938 C54.6337,57.8638 53.7077,59.0188 52.5587,60.0038 C51.4287,60.9728 50.1697,61.7558 48.9047,62.5288 C47.9017,63.1418 46.8747,63.7158 45.8807,64.3428" id="Fill-20" fill="#1A568D"></path>
                </g>
            </g>
        </g>
    </g>
</svg>