<?xml version="1.0" encoding="UTF-8"?>
<svg width="64px" height="65px" viewBox="0 0 64 65" version="1.1" xmlns="http://www.w3.org/2000/svg" xmlns:xlink="http://www.w3.org/1999/xlink">
    <!-- Generator: Sketch 46.2 (44496) - http://www.bohemiancoding.com/sketch -->
    <title>Monero</title>
    <desc>Created with Sketch.</desc>
    <defs></defs>
    <g id="Page-1" stroke="none" stroke-width="1" fill="none" fill-rule="evenodd">
        <g id="crypto" transform="translate(-86.000000, -208.000000)" fill-rule="nonzero">
            <g id="Monero" transform="translate(86.000000, 208.000000)">
                <path d="M58.1,49.2 L45.6,49.2 L45.6,32 L31.7,45.9 L17.8,32 L17.8,49.2 L5.3,49.2 L4.9,49.2 C10.5,58.1 20.4,64.1 31.7,64.1 C43,64.1 52.9,58.2 58.5,49.2 L58.1,49.2 Z" id="Shape" fill="#4C4C4C"></path>
                <path d="M11.2,42.6 L11.2,16.2 L31.7,36.7 L52.2,16.2 L52.2,42.6 L61.7,42.6 C62.8,39.4 63.4,36 63.4,32.4 C63.4,14.9 49.2,0.7 31.7,0.7 C14.2,0.7 0,14.9 0,32.4 C0,36 0.6,39.4 1.7,42.6 L11.2,42.6 L11.2,42.6 Z" id="Shape" fill="#FF6B01"></path>
            </g>
        </g>
    </g>
</svg>