<?xml version="1.0" encoding="UTF-8"?>
<svg width="64px" height="64px" viewBox="0 0 64 64" version="1.1" xmlns="http://www.w3.org/2000/svg" xmlns:xlink="http://www.w3.org/1999/xlink">
    <!-- Generator: Sketch 46.2 (44496) - http://www.bohemiancoding.com/sketch -->
    <title>Namecoin</title>
    <desc>Created with Sketch.</desc>
    <defs></defs>
    <g id="Page-1" stroke="none" stroke-width="1" fill="none" fill-rule="evenodd">
        <g id="crypto" transform="translate(-354.000000, -443.000000)" fill-rule="nonzero">
            <g id="Namecoin" transform="translate(354.000000, 443.000000)">
                <circle id="Oval" fill="#6B91C0" cx="31.7" cy="31.8" r="31.7"></circle>
                <path d="M46.7,15.8 C46,15.8 45.4,15.8 44.7,15.9 C43.8,16 43,16.2 42.4,16.8 C42.2,17 42,17.1 41.9,17.4 C41.6,17.9 41.4,18.5 41.4,19.1 C41.4,19.7 41.3,20.4 41.3,21 C41.3,23.4 41.3,25.8 41.3,28.2 C41.3,28.3 41.3,28.4 41.3,28.4 C41.2,28.4 41.2,28.4 41.1,28.3 C39.7,27.4 38.2,26.5 36.8,25.5 C34.9,24.3 33,23 31.1,21.8 C28.7,20.2 26.3,18.7 23.8,17.1 C23.3,16.8 22.7,16.4 22.2,16.2 C21.7,16 21.2,15.8 20.7,15.8 C20.2,15.8 19.6,15.8 19.1,15.9 C18.5,16 18,16.3 17.6,16.6 C17.2,16.8 17,17.2 16.8,17.6 C16.6,18.2 16.5,18.8 16.5,19.4 C16.5,20.1 16.5,20.9 16.5,21.6 C16.5,29.8 16.5,38.1 16.6,46.3 C16.6,46.7 16.6,47.2 16.6,47.6 C16.6,47.8 16.6,47.8 16.8,47.8 C17.1,47.8 17.3,47.8 17.6,47.8 C18.3,47.8 19,47.8 19.7,47.6 C21,47.2 22.1,46.2 22.3,44.5 C22.3,43.7 22.4,42.9 22.4,42.1 C22.4,39.3 22.4,36.5 22.4,33.7 C22.4,33.6 22.4,33.5 22.4,33.5 C22.5,33.5 22.5,33.6 22.6,33.6 C23,33.9 23.3,34.1 23.7,34.4 C27.2,36.9 30.8,39.4 34.3,42 C36.4,43.5 38.5,45 40.6,46.5 C41.2,46.9 41.8,47.3 42.4,47.6 C42.8,47.8 43.2,47.9 43.6,47.9 C44.4,47.9 45.1,47.6 45.8,47.2 C46.4,46.8 46.8,46.2 46.9,45.4 C47,45 47,44.6 47,44.2 C47,36.5 47.1,28.8 47.1,21 C47.1,19.4 47.1,17.7 47.1,16.1 C46.9,15.8 46.9,15.8 46.7,15.8 Z M41.1,39.4 C41.1,39.6 41,39.8 40.8,39.9 C40.6,40 40.4,40 40.2,39.8 C39.6,39.4 39,39 38.5,38.6 C35.6,36.7 32.7,34.7 29.8,32.8 C27.8,31.4 25.8,30.1 23.8,28.7 C23.5,28.5 23.2,28.3 22.9,28 C22.5,27.7 22.3,27.4 22.3,26.9 C22.3,26.7 22.3,26.6 22.3,26.4 C22.3,25.6 22.3,24.7 22.4,23.9 C22.4,23.7 22.4,23.5 22.5,23.3 C22.6,23.1 22.7,23 22.8,22.9 C23,22.8 23.2,22.8 23.4,22.9 C23.8,23.2 24.2,23.4 24.6,23.7 C27.2,25.4 29.8,27.2 32.4,28.9 C34.7,30.4 36.9,32 39.2,33.5 C39.7,33.8 40.1,34.1 40.6,34.5 C40.6,34.5 40.6,34.5 40.6,34.5 C41,34.7 41.2,35 41.1,35.5 C41.1,36.1 41.1,36.7 41.1,37.3 C41.1,38.2 41.1,38.8 41.1,39.4 Z" id="Shape" fill="#FFFFFF"></path>
            </g>
        </g>
    </g>
</svg>