<?xml version="1.0" encoding="UTF-8"?>
<svg width="64px" height="64px" viewBox="0 0 64 64" version="1.1" xmlns="http://www.w3.org/2000/svg" xmlns:xlink="http://www.w3.org/1999/xlink">
    <!-- Generator: Sketch 46.2 (44496) - http://www.bohemiancoding.com/sketch -->
    <title>Prime</title>
    <desc>Created with Sketch.</desc>
    <defs></defs>
    <g id="Page-1" stroke="none" stroke-width="1" fill="none" fill-rule="evenodd">
        <g id="crypto" transform="translate(-354.000000, -326.000000)" fill-rule="nonzero" fill="#FBD200">
            <g id="Prime" transform="translate(354.000000, 326.000000)">
                <path d="M63.4,30.1 C63.4,29.2 63.3,28.4 63.2,27.5 C63.1,26.5 62.9,25.6 62.7,24.6 C62.5,23.7 62.2,22.7 61.9,21.8 C61.5,20.7 61.1,19.5 60.6,18.5 C60.1,17.5 59.6,16.5 59.1,15.6 C58.4,14.4 57.6,13.3 56.8,12.2 C56.2,11.4 55.5,10.6 54.9,9.9 C54,9 53.2,8.2 52.2,7.4 C51.2,6.6 50.3,5.9 49.2,5.2 C47.7,4.2 46.2,3.4 44.5,2.6 C42.9,1.9 41.2,1.3 39.5,0.9 C38.4,0.6 37.3,0.4 36.2,0.2 C35.6,0.1 34.9,5.68434189e-14 34.3,5.68434189e-14 C33.7,5.68434189e-14 33.1,5.68434189e-14 32.5,5.68434189e-14 C31.8,5.68434189e-14 31.2,5.68434189e-14 30.5,5.68434189e-14 C29.6,5.68434189e-14 28.8,0.1 27.9,0.2 C27.1,0.3 26.3,0.4 25.5,0.6 C24,0.9 22.6,1.3 21.2,1.8 C19.9,2.3 18.6,2.8 17.4,3.4 C16.1,4.1 14.8,4.8 13.5,5.7 C12.1,6.7 10.8,7.8 9.5,9 C9,9.5 8.6,9.9 8.1,10.4 C7.6,10.9 7.1,11.5 6.7,12.1 C6.1,12.8 5.6,13.6 5,14.4 C4.4,15.3 3.9,16.2 3.4,17.2 C3.1,17.8 2.8,18.5 2.5,19.1 C1.9,20.4 1.5,21.7 1.1,23.1 C0.7,24.4 0.5,25.7 0.3,27 C0.2,27.9 0.1,28.8 0.1,29.7 C0.1,29.9 0.1,30.2 0.1,30.4 C0.1,31.2 0.1,32 0.1,32.7 C0.1,33 0.1,33.3 0.1,33.6 C0.1,34.2 0.1,34.8 0.2,35.4 C0.3,36.3 0.4,37.1 0.6,38 C0.9,39.4 1.3,40.9 1.8,42.2 C2.2,43.3 2.6,44.3 3.1,45.4 C3.5,46.3 4,47.1 4.5,48 C5.2,49.1 5.9,50.2 6.7,51.2 C7.4,52.1 8.1,52.9 8.9,53.7 C9.5,54.3 10.1,54.9 10.8,55.5 C11.6,56.2 12.3,56.8 13.2,57.4 C14.5,58.3 15.8,59.2 17.3,59.9 C18.1,60.3 18.9,60.7 19.7,61 C21.2,61.6 22.7,62.1 24.3,62.5 C25.2,62.7 26.1,62.9 27.1,63 C27.7,63.1 28.4,63.2 29,63.2 C29.6,63.2 30.2,63.3 30.8,63.3 C30.9,63.3 30.9,63.3 31,63.3 C31.7,63.3 32.5,63.3 33.2,63.3 C33.5,63.3 33.7,63.3 34,63.3 C34.5,63.3 35.1,63.3 35.6,63.2 C36.6,63.1 37.6,62.9 38.5,62.7 C40.3,62.3 42,61.8 43.7,61.1 C44.8,60.7 45.9,60.1 47,59.6 C47.7,59.2 48.5,58.8 49.2,58.3 C50.3,57.6 51.4,56.8 52.4,55.9 C53.1,55.3 53.7,54.7 54.4,54.1 C54.9,53.6 55.3,53.2 55.7,52.7 C56.2,52.1 56.7,51.5 57.2,50.9 C57.8,50.1 58.4,49.3 58.9,48.4 C59.5,47.5 60,46.5 60.5,45.6 C60.9,44.8 61.3,44 61.6,43.1 C62,42 62.4,40.9 62.7,39.8 C63,38.7 63.2,37.6 63.4,36.4 C63.5,35.7 63.6,34.9 63.7,34.2 C63.7,33.6 63.7,33.1 63.7,32.5 C63.4,31.7 63.4,30.9 63.4,30.1 Z M46.5,31.5 C46.5,33 46.3,34.5 45.8,35.9 C45,38 43.7,39.7 41.7,40.8 C40.3,41.7 38.7,42.2 37,42.4 C36.3,42.5 35.6,42.6 34.9,42.6 C34.8,42.6 34.8,42.6 34.8,42.7 C34.8,43.3 34.8,43.9 34.8,44.6 C34.8,44.7 34.8,44.7 35,44.7 C36.3,44.7 37.5,44.7 38.8,44.7 C38.9,44.7 39,44.7 39,44.9 C39,45.7 39,46.6 39,47.4 C39,47.6 39,47.6 38.8,47.6 C37.6,47.6 36.3,47.6 35.1,47.6 C34.9,47.6 34.9,47.6 34.9,47.8 C34.9,48.8 34.9,49.8 34.9,50.7 C34.9,50.9 34.9,50.9 34.7,50.9 C32.7,50.9 30.6,50.9 28.6,50.9 C28.4,50.9 28.4,50.8 28.4,50.7 C28.4,49.7 28.4,48.7 28.4,47.7 C28.4,47.6 28.4,47.5 28.2,47.5 C27,47.5 25.9,47.5 24.7,47.5 C24.5,47.5 24.5,47.5 24.5,47.2 C24.5,46.4 24.5,45.6 24.5,44.7 C24.5,44.6 24.5,44.5 24.7,44.5 C25.9,44.5 27.1,44.5 28.3,44.5 C28.4,44.5 28.5,44.5 28.5,44.3 C28.5,43.7 28.5,43.1 28.5,42.5 C28.5,42.3 28.5,42.3 28.3,42.3 C26.3,42.3 24.3,41.8 22.5,40.9 C20,39.6 18.4,37.6 17.6,35 C17.2,33.7 17,32.3 17,30.9 C17,26.4 17,21.9 17,17.5 C17,17.4 17,17.3 17.2,17.3 C19.2,17.3 21.2,17.3 23.2,17.3 C23.4,17.3 23.4,17.3 23.4,17.5 C23.4,22 23.4,26.5 23.4,31.1 C23.4,32 23.5,32.9 23.8,33.8 C24.4,35.4 25.5,36.4 27.2,36.8 C27.6,36.9 28,37 28.5,37 C28.6,37 28.6,37 28.6,36.9 C28.6,36.9 28.6,36.8 28.6,36.8 C28.6,33.6 28.6,30.4 28.6,27.2 C28.6,24 28.6,20.8 28.6,17.5 C28.6,17.3 28.6,17.3 28.8,17.3 C30.8,17.3 32.8,17.3 34.8,17.3 C35,17.3 35,17.3 35,17.5 C35,23.9 35,30.4 35,36.8 C35,37 35,37 35.2,37 C36.6,36.9 37.8,36.5 38.8,35.5 C39.5,34.8 39.8,34 40,33.1 C40.2,32.4 40.2,31.7 40.2,31 C40.2,26.5 40.2,22 40.2,17.5 C40.2,17.3 40.2,17.3 40.4,17.3 C42.4,17.3 44.4,17.3 46.4,17.3 C46.6,17.3 46.6,17.3 46.6,17.5 C46.5,22.3 46.5,26.9 46.5,31.5 Z" id="Shape"></path>
            </g>
        </g>
    </g>
</svg>