<?xml version="1.0" encoding="UTF-8"?>
<svg width="64px" height="65px" viewBox="0 0 64 65" version="1.1" xmlns="http://www.w3.org/2000/svg" xmlns:xlink="http://www.w3.org/1999/xlink">
    <!-- Generator: Sketch 46.2 (44496) - http://www.bohemiancoding.com/sketch -->
    <title>Ripple</title>
    <desc>Created with Sketch.</desc>
    <defs></defs>
    <g id="Page-1" stroke="none" stroke-width="1" fill="none" fill-rule="evenodd">
        <g id="crypto" transform="translate(-215.000000, -208.000000)" fill-rule="nonzero">
            <g id="Ripple" transform="translate(215.000000, 208.000000)">
                <circle id="Oval" fill="#739BEE" cx="32" cy="32.4" r="31.7"></circle>
                <path d="M40.7,35.8 C39.7,35.5 38.7,35.4 37.8,35.4 C36.9,35.5 35.9,35.1 35.4,34.3 L35.1,33.9 C34.5,33 34.5,31.9 35.1,31 L35.4,30.5 C35.9,29.8 36.7,29.4 37.6,29.4 C38.7,29.4 39.8,29.2 40.9,28.6 C43.6,27.2 45.4,24.5 45.3,21.5 C45.2,17.2 41.6,13.8 37.2,14 C33.5,14.2 30.4,17.2 30,20.9 C29.8,22.9 30.4,24.7 31.4,26.2 C32,27.1 32,28.3 31.4,29.2 L31.3,29.3 C30.8,30 30,30.4 29.2,30.4 L28.7,30.4 C27.7,30.4 26.8,29.8 26.4,28.9 C25.1,26.3 22.4,24.6 19.3,24.7 C15.3,24.8 12,28.1 11.9,32.1 C11.7,36.5 15.2,40.1 19.6,40.1 C22.6,40.1 25.2,38.4 26.4,35.9 C26.8,35 27.7,34.4 28.7,34.4 L29.1,34.4 C30,34.4 30.8,34.8 31.2,35.5 L31.7,36.2 C32.3,37 32.2,38.1 31.7,38.9 C30.8,40.3 30.4,41.9 30.6,43.7 C30.9,47.3 33.9,50.2 37.4,50.6 C42.3,51.1 46.3,47 45.9,42.2 C45.7,39.3 43.6,36.7 40.7,35.8 Z" id="Shape" fill="#FEFEFE"></path>
            </g>
        </g>
    </g>
</svg>