<?xml version="1.0" encoding="UTF-8"?>
<svg width="64px" height="64px" viewBox="0 0 64 64" version="1.1" xmlns="http://www.w3.org/2000/svg" xmlns:xlink="http://www.w3.org/1999/xlink">
    <!-- Generator: Sketch 46.2 (44496) - http://www.bohemiancoding.com/sketch -->
    <title>Steem</title>
    <desc>Created with Sketch.</desc>
    <defs></defs>
    <g id="Page-1" stroke="none" stroke-width="1" fill="none" fill-rule="evenodd">
        <g id="crypto" transform="translate(-86.000000, -443.000000)">
            <g id="Steem" transform="translate(86.000000, 443.000000)">
                <circle id="Oval" fill="#004F9E" fill-rule="nonzero" cx="31.7" cy="31.8" r="31.7"></circle>
                <g id="Group" stroke-width="1" fill-rule="evenodd" transform="translate(15.000000, 14.000000)" fill="#27A1F8">
                    <path d="M33,24.9 C32.7,25 32.7,25.3 32.6,25.5 C31.5,27.7 29.9,29.4 28.1,30.9 C28,31 27.8,31.2 27.5,31.1 C27.3,30.4 27.7,29.8 27.9,29.2 C28.7,27 28.4,24.9 27.4,22.8 C26,20 24.6,17.1 23.4,14.2 C23,13.2 22.7,12.3 22.5,11.2 C22.1,9.4 23,8 24.1,6.7 C24.8,5.9 25.5,5.2 26.4,4.6 C26.6,4.5 26.8,4.2 27,4.4 C27.2,4.5 27.1,4.8 27.1,5.1 C26.9,6.7 26.7,8.3 27.1,9.8 C27.4,11.2 28.2,12.4 28.8,13.7 C30.2,16.7 31.8,19.6 32.8,22.8 C33,23.3 32.9,23.9 33.2,24.3 C33,24.5 33,24.7 33,24.9 Z" id="Shape" fill-rule="nonzero"></path>
                    <path d="M15.9,1.7 C15.8,2.5 15.6,3.3 15.6,4.1 C15.4,6.6 16.1,8.8 17.2,11 C19,14.8 21,18.6 22.5,22.5 C22.9,23.5 23.2,24.6 23.4,25.6 C23.7,27.3 22.7,28.5 21.8,29.7 C20.6,31.4 19.2,32.9 17.6,34.2 C17.3,34.4 17,34.7 16.7,34.5 C16.4,34.3 16.6,33.9 16.7,33.5 C17.1,32.3 17.4,31 17.6,29.7 C18,27.4 17,25.4 16.1,23.4 C14.5,20 12.8,16.6 11.3,13.2 C10.7,11.9 10.4,10.6 10.1,9.2 C9.7,7.3 10.5,5.7 11.7,4.2 C12.7,2.9 13.8,1.7 15.1,0.8 C15.3,0.6 15.5,0.3 15.9,0.5 C16,1 15.8,1.4 15.9,1.7 Z" id="Shape" fill-rule="nonzero"></path>
                    <path d="M5.7,31.1 C5.6,30.7 5.7,30.3 5.8,29.9 C6.8,27.3 6.5,24.9 5.3,22.4 C3.9,19.7 2.5,16.9 1.4,14.1 C1.1,13.3 0.9,12.5 0.6,11.6 C0.2,10.3 0.5,9.1 1.2,8 C2.2,6.5 3.4,5.2 5,4.2 C5.1,5.4 4.8,6.4 4.8,7.4 C4.8,8.9 5,10.2 5.7,11.6 C7,14.2 8.2,16.9 9.4,19.5 C10,20.7 10.4,22 10.8,23.3 C11,24 11,24.7 10.7,25.4 C9.6,27.6 8,29.4 6.1,30.9 C6,31.1 5.8,31.1 5.7,31.1 Z" id="Shape" fill-rule="nonzero"></path>
                </g>
            </g>
        </g>
    </g>
</svg>